<?xml version="1.0" encoding="UTF-8" standalone="no"?>
<!-- Created with Inkscape (http://www.inkscape.org/) -->

<svg
   xmlns:dc="http://purl.org/dc/elements/1.1/"
   xmlns:cc="http://creativecommons.org/ns#"
   xmlns:rdf="http://www.w3.org/1999/02/22-rdf-syntax-ns#"
   xmlns:svg="http://www.w3.org/2000/svg"
   xmlns="http://www.w3.org/2000/svg"
   version="1.1"
   width="299.99997"
   height="188.92183"
   id="svg2"
   xml:space="preserve"><metadata
     id="metadata8"><rdf:RDF><cc:Work
         rdf:about=""><dc:format>image/svg+xml</dc:format><dc:type
           rdf:resource="http://purl.org/dc/dcmitype/StillImage" /><dc:title></dc:title></cc:Work></rdf:RDF></metadata><defs
     id="defs6"><clipPath
       id="clipPath30"><path
         d="m 680.315,598.104 0,-234.136 133.78,-62.383 105.344,48.872 101.033,17.212 0,230.435 -340.157,0 z"
         id="path32" /></clipPath><clipPath
       id="clipPath210"><path
         d="m 0,0 1020.472,0 0,623.622 L 0,623.622 0,0 z"
         id="path212" /></clipPath><clipPath
       id="clipPath266"><path
         d="m 0,0 1020.472,0 0,623.622 L 0,623.622 0,0 z"
         id="path268" /></clipPath></defs><g
     transform="matrix(1.25,0,0,-1.25,-1019.3852,143.61054)"
     id="g10"><g
       transform="matrix(1.9219296,0,0,1.9219296,828.29936,97.475176)"
       id="g234"><path
         d="m 0,0 11.977,-14.467 -18.632,0 L 0,0 z"
         id="path236"
         style="fill:#009ac2;fill-opacity:1;fill-rule:nonzero;stroke:none" /></g><g
       transform="matrix(1.9219296,0,0,1.9219296,831.69003,18.034329)"
       id="g238"><path
         d="m 0,0 35.199,0 16.2,-13.777 -41.881,0 L 0,0 z"
         id="path240"
         style="fill:#8ecde0;fill-opacity:1;fill-rule:nonzero;stroke:none" /></g><g
       transform="matrix(1.9219296,0,0,1.9219296,827.08278,44.515637)"
       id="g242"><path
         d="m 0,0 29.748,0 7.848,-13.778 -35.199,0 L 0,0 z"
         id="path244"
         style="fill:#009ac2;fill-opacity:1;fill-rule:nonzero;stroke:none" /></g><g
       transform="matrix(1.9219296,0,0,1.9219296,815.50815,69.671005)"
       id="g246"><path
         d="m 0,0 18.632,0 17.138,-13.089 -29.748,0 L 0,0 z"
         id="path248"
         style="fill:#8ecde0;fill-opacity:1;fill-rule:nonzero;stroke:none" /></g><g
       transform="matrix(1.9219296,0,0,1.9219296,849.98046,-8.4444792)"
       id="g250"><path
         d="m 0,0 3.789,-14.467 33,0 L 41.882,0 0,0 z"
         id="path252"
         style="fill:#009ac2;fill-opacity:1;fill-rule:nonzero;stroke:none" /></g><g
       transform="matrix(1.9219296,0,0,1.9219296,904.92381,113.82734)"
       id="g254"><path
         d="m 0,0 4.481,0 0,-1.321 -2.962,0 0,-2.271 2.367,0 0,-1.296 -2.354,0 0,-3.989 L 0,-8.877 0,0 z"
         id="path256"
         style="fill:#000000;fill-opacity:1;fill-rule:nonzero;stroke:none" /></g><g
       transform="matrix(1.9219296,0,0,1.9219296,916.5067,113.82734)"
       id="g258"><path
         d="m 0,0 1.532,0 0,-3.502 2.607,0 0,3.502 1.531,0 0,-8.877 -1.531,0 0,4.028 -2.607,0 0,-4.028 L 0,-8.877 0,0 z"
         id="path260"
         style="fill:#000000;fill-opacity:1;fill-rule:nonzero;stroke:none" /></g><g
       transform="matrix(1.9219296,0,0,1.9219296,-862.47267,-36.249996)"
       id="g262"><g
         clip-path="url(#clipPath266)"
         id="g264"><g
           transform="translate(939.0532,70.4927)"
           id="g270"><path
             d="m 0,0 c 0.975,0 1.355,0.411 1.355,1.347 0,0.885 -0.317,1.335 -1.329,1.335 l -1.228,0 L -1.202,0 0,0 z m -0.012,3.939 c 0.848,0 1.075,0.397 1.075,1.192 0,0.783 -0.278,1.18 -1.126,1.18 l -1.139,0 0,-2.372 1.19,0 z m -2.696,3.655 2.936,0 C 1.848,7.594 2.633,6.76 2.633,5.272 2.633,4.323 2.393,3.797 1.532,3.438 2.367,3.22 2.988,2.566 2.988,1.27 c 0,-1.796 -1.001,-2.553 -2.747,-2.553 l -2.949,0 0,8.877 z"
             id="path272"
             style="fill:#000000;fill-opacity:1;fill-rule:nonzero;stroke:none" /></g><g
           transform="translate(943.5868,77.6123)"
           id="g274"><path
             d="M 0,0 C 0,0.526 0.405,0.949 0.924,0.949 1.443,0.949 1.848,0.539 1.848,0 1.848,-0.526 1.443,-0.936 0.911,-0.936 0.405,-0.936 0,-0.526 0,0 m 0.215,-3.015 -0.835,0.155 0,0.949 2.265,0 0,-6.491 -1.43,0 0,5.387 z"
             id="path276"
             style="fill:#000000;fill-opacity:1;fill-rule:nonzero;stroke:none" /></g><g
           transform="translate(948.2831,73.0842)"
           id="g278"><path
             d="M 0,0 2.101,0 C 2.089,1.257 1.861,1.693 1.064,1.693 0.418,1.693 0.076,1.359 0,0 m -1.544,-0.616 c 0,2.463 0.987,3.399 2.595,3.399 1.721,0 2.531,-0.975 2.531,-3.348 l 0,-0.474 -3.594,0 c 0.05,-1.488 0.404,-1.821 1.316,-1.821 0.658,0 1.063,0.268 1.468,0.576 l 0.684,-1 C 2.899,-3.759 2.241,-4.041 1.317,-4.041 c -1.912,0 -2.861,0.988 -2.861,3.425"
             id="path280"
             style="fill:#000000;fill-opacity:1;fill-rule:nonzero;stroke:none" /></g><g
           transform="translate(953.3356,70.8904)"
           id="g282"><path
             d="m 0,0 0,7.658 1.443,0 0,-7.837 c 0,-0.411 0.101,-0.5 0.455,-0.5 0.102,0 0.203,0.012 0.203,0.012 L 2.278,-1.655 C 2.075,-1.732 1.708,-1.821 1.367,-1.821 0.278,-1.821 0,-1.27 0,0"
             id="path284"
             style="fill:#000000;fill-opacity:1;fill-rule:nonzero;stroke:none" /></g><g
           transform="translate(958.0193,73.0842)"
           id="g286"><path
             d="M 0,0 2.101,0 C 2.089,1.257 1.861,1.693 1.064,1.693 0.418,1.693 0.076,1.359 0,0 m -1.544,-0.616 c 0,2.463 0.987,3.399 2.595,3.399 1.721,0 2.531,-0.975 2.531,-3.348 l 0,-0.474 -3.594,0 c 0.05,-1.488 0.404,-1.821 1.316,-1.821 0.658,0 1.063,0.268 1.468,0.576 l 0.684,-1 C 2.899,-3.759 2.241,-4.041 1.317,-4.041 c -1.912,0 -2.861,0.988 -2.861,3.425"
             id="path288"
             style="fill:#000000;fill-opacity:1;fill-rule:nonzero;stroke:none" /></g><g
           transform="translate(962.4637,75.7009)"
           id="g290"><path
             d="m 0,0 0.683,0 0,0.898 c 0,1.68 0.823,2.04 1.785,2.04 0.595,0 1.051,-0.128 1.392,-0.321 L 3.455,1.578 C 3.24,1.693 3.025,1.745 2.747,1.745 2.304,1.745 2.114,1.527 2.114,0.988 l 0,-0.988 1.139,0 0,-1.129 -1.139,0 0,-5.362 -1.431,0 0,5.362 L 0,-1.129 0,0 z"
             id="path292"
             style="fill:#000000;fill-opacity:1;fill-rule:nonzero;stroke:none" /></g><g
           transform="translate(968.0848,73.0842)"
           id="g294"><path
             d="M 0,0 2.101,0 C 2.088,1.257 1.861,1.693 1.063,1.693 0.417,1.693 0.076,1.359 0,0 m -1.544,-0.616 c 0,2.463 0.987,3.399 2.594,3.399 1.722,0 2.532,-0.975 2.532,-3.348 l 0,-0.474 -3.595,0 c 0.051,-1.488 0.405,-1.821 1.316,-1.821 0.658,0 1.064,0.268 1.469,0.576 l 0.684,-1 C 2.898,-3.759 2.24,-4.041 1.316,-4.041 c -1.911,0 -2.86,0.988 -2.86,3.425"
             id="path296"
             style="fill:#000000;fill-opacity:1;fill-rule:nonzero;stroke:none" /></g><g
           transform="translate(973.1367,70.8904)"
           id="g298"><path
             d="m 0,0 0,7.658 1.443,0 0,-7.837 c 0,-0.411 0.101,-0.5 0.455,-0.5 0.102,0 0.203,0.012 0.203,0.012 L 2.278,-1.655 C 2.075,-1.732 1.708,-1.821 1.367,-1.821 0.278,-1.821 0,-1.27 0,0"
             id="path300"
             style="fill:#000000;fill-opacity:1;fill-rule:nonzero;stroke:none" /></g><g
           transform="translate(980.0734,70.7753)"
           id="g302"><path
             d="m 0,0 0,3.36 c -0.279,0.27 -0.671,0.539 -1.127,0.539 -0.797,0 -1.075,-0.359 -1.075,-2.219 0,-1.847 0.24,-2.206 0.987,-2.206 0.519,0 0.873,0.192 1.215,0.526 m -3.747,1.629 c 0,2.578 0.697,3.463 2.165,3.463 0.683,0 1.227,-0.359 1.582,-0.692 l 0,3.373 1.443,0 0,-9.338 -1.152,0 -0.164,0.641 c -0.482,-0.526 -1.013,-0.808 -1.671,-0.808 -1.291,0 -2.203,0.744 -2.203,3.361"
             id="path304"
             style="fill:#000000;fill-opacity:1;fill-rule:nonzero;stroke:none" /></g><g
           transform="translate(923.8652,64.2183)"
           id="g306"><path
             d="m 0,0 0.776,0 0,-8.436 -0.546,0 -0.182,0.822 c -0.484,-0.478 -1.187,-0.946 -2.132,-0.946 -1.224,0 -2.181,0.676 -2.181,2.506 l 0,6.054 0.763,0 0,-5.919 c 0,-1.412 0.424,-1.965 1.466,-1.965 0.97,0 1.648,0.504 2.036,0.872 L 0,0 z"
             id="path308"
             style="fill:#000000;fill-opacity:1;fill-rule:nonzero;stroke:none" /></g><g
           transform="translate(926.7247,61.6519)"
           id="g310"><path
             d="m 0,0 0.508,0 0.17,-0.847 c 0.57,0.564 1.176,0.969 1.891,0.969 0.824,0 1.429,-0.491 1.429,-1.509 l 0,-4.483 -0.727,0 0,4.286 c 0,0.786 -0.278,1.056 -0.872,1.056 -0.582,0 -1.151,-0.381 -1.672,-0.848 l 0,-4.494 L 0,-5.87 0,0 z"
             id="path312"
             style="fill:#000000;fill-opacity:1;fill-rule:nonzero;stroke:none" /></g><g
           transform="translate(932.7469,63.5676)"
           id="g314"><path
             d="M 0,0 C 0,0.331 0.23,0.577 0.545,0.577 0.872,0.577 1.103,0.331 1.103,0 1.103,-0.32 0.872,-0.565 0.545,-0.565 0.23,-0.565 0,-0.32 0,0 m 0.254,-2.493 -0.824,0.11 0,0.467 1.551,0 0,-5.87 -0.727,0 0,5.293 z"
             id="path316"
             style="fill:#000000;fill-opacity:1;fill-rule:nonzero;stroke:none" /></g><g
           transform="translate(935.1217,61.6519)"
           id="g318"><path
             d="m 0,0 0.776,0 1.151,-3.708 c 0.157,-0.505 0.302,-1.143 0.376,-1.523 l 0.011,0 c 0.061,0.368 0.218,1.007 0.376,1.534 L 3.829,0 4.58,0 2.641,-5.87 1.902,-5.87 0,0 z"
             id="path320"
             style="fill:#000000;fill-opacity:1;fill-rule:nonzero;stroke:none" /></g><g
           transform="translate(944.148,59.1831)"
           id="g322"><path
             d="M 0,0 C 0,1.498 -0.435,1.99 -1.333,1.99 -2.144,1.99 -2.677,1.535 -2.762,0 L 0,0 z m -1.187,-2.898 c 0.667,0 1.066,0.233 1.442,0.528 l 0.4,-0.515 c -0.497,-0.406 -1.042,-0.639 -1.842,-0.639 -1.381,0 -2.351,0.785 -2.351,3.046 0,2.235 0.934,3.07 2.218,3.07 1.344,0 2.071,-0.86 2.071,-2.862 l 0,-0.307 -3.526,0 c 0.025,-1.781 0.498,-2.321 1.588,-2.321"
             id="path324"
             style="fill:#000000;fill-opacity:1;fill-rule:nonzero;stroke:none" /></g><g
           transform="translate(946.4989,61.6519)"
           id="g326"><path
             d="m 0,0 0.508,0 0.17,-0.995 c 0.485,0.602 1.067,1.081 1.758,1.081 0.06,0 0.169,-0.013 0.181,-0.025 L 2.544,-0.725 C 2.496,-0.7 2.399,-0.688 2.29,-0.688 c -0.593,0 -1.042,-0.307 -1.563,-0.871 l 0,-4.311 L 0,-5.87 0,0 z"
             id="path328"
             style="fill:#000000;fill-opacity:1;fill-rule:nonzero;stroke:none" /></g><g
           transform="translate(949.7825,56.2978)"
           id="g330"><path
             d="m 0,0 0.315,0.528 c 0.448,-0.332 0.933,-0.553 1.563,-0.553 0.861,0 1.212,0.393 1.212,1.032 0,0.712 -0.315,0.921 -1.308,1.24 -0.861,0.27 -1.503,0.675 -1.503,1.731 0,0.824 0.557,1.499 1.708,1.499 0.703,0 1.175,-0.172 1.576,-0.406 L 3.296,4.494 C 2.872,4.728 2.532,4.85 2,4.85 1.346,4.85 0.97,4.58 0.97,3.991 0.97,3.352 1.26,3.18 2.072,2.91 3.042,2.591 3.792,2.259 3.792,1.044 3.792,-0.098 3.078,-0.639 1.866,-0.639 1.09,-0.639 0.424,-0.344 0,0"
             id="path332"
             style="fill:#000000;fill-opacity:1;fill-rule:nonzero;stroke:none" /></g><g
           transform="translate(955.2598,63.5676)"
           id="g334"><path
             d="M 0,0 C 0,0.331 0.23,0.577 0.545,0.577 0.872,0.577 1.103,0.331 1.103,0 1.103,-0.32 0.872,-0.565 0.545,-0.565 0.23,-0.565 0,-0.32 0,0 m 0.254,-2.493 -0.824,0.11 0,0.467 1.551,0 0,-5.87 -0.727,0 0,5.293 z"
             id="path336"
             style="fill:#000000;fill-opacity:1;fill-rule:nonzero;stroke:none" /></g><g
           transform="translate(957.6829,61.0501)"
           id="g338"><path
             d="m 0,0 0,0.602 0.703,0 0,1.547 0.714,0.172 0,-1.719 1.212,0 0,-0.602 -1.212,0 0,-4.249 c 0,-0.356 0.158,-0.541 0.485,-0.541 0.303,0 0.522,0.099 0.679,0.173 L 2.763,-5.158 C 2.52,-5.28 2.254,-5.391 1.866,-5.391 c -0.655,0 -1.163,0.307 -1.163,1.105 L 0.703,0 0,0 z"
             id="path340"
             style="fill:#000000;fill-opacity:1;fill-rule:nonzero;stroke:none" /></g><g
           transform="translate(961.5966,53.8048)"
           id="g342"><path
             d="m 0,0 c 1.03,0.331 1.406,0.724 1.769,1.977 l -0.255,0 -1.829,5.87 0.775,0 1.127,-3.758 C 1.769,3.463 1.89,2.91 1.976,2.493 l 0.011,0 c 0.085,0.417 0.23,0.946 0.424,1.596 l 1.115,3.758 0.751,0 L 2.363,1.72 C 1.842,0.086 1.357,-0.258 0.181,-0.577 L 0,0 z"
             id="path344"
             style="fill:#000000;fill-opacity:1;fill-rule:nonzero;stroke:none" /></g><g
           transform="translate(973.3011,58.6926)"
           id="g346"><path
             d="m 0,0 c 0,1.854 -0.545,2.493 -1.551,2.493 -1.006,0 -1.539,-0.602 -1.539,-2.457 0,-1.853 0.545,-2.48 1.551,-2.48 C -0.533,-2.444 0,-1.842 0,0 m -3.853,0.012 c 0,2.186 0.945,3.07 2.29,3.07 1.332,0 2.326,-0.872 2.326,-3.058 0,-2.173 -0.945,-3.058 -2.302,-3.058 -1.345,0 -2.314,0.873 -2.314,3.046"
             id="path348"
             style="fill:#000000;fill-opacity:1;fill-rule:nonzero;stroke:none" /></g><g
           transform="translate(975.0697,61.0501)"
           id="g350"><path
             d="m 0,0 0,0.602 0.691,0 0,1.449 c 0,1.105 0.617,1.547 1.369,1.547 0.46,0 0.799,-0.085 1.139,-0.307 L 2.92,2.751 C 2.666,2.886 2.436,2.972 2.133,2.972 1.673,2.972 1.417,2.689 1.417,2.039 l 0,-1.437 1.176,0 0,-0.602 -1.176,0 0,-5.268 -0.726,0 L 0.691,0 0,0 z"
             id="path352"
             style="fill:#000000;fill-opacity:1;fill-rule:nonzero;stroke:none" /></g><g
           transform="translate(922.8102,47.6834)"
           id="g354"><path
             d="m 0,0 c -0.267,0.922 -0.376,1.45 -0.448,1.916 l -0.025,0 C -0.558,1.437 -0.679,0.897 -0.945,0 l -0.728,-2.394 2.376,0 L 0,0 z m -2.703,-5.771 -0.775,0 2.605,8.436 0.837,0 2.544,-8.436 -0.824,0 -0.788,2.714 -2.774,0 -0.825,-2.714 z"
             id="path356"
             style="fill:#000000;fill-opacity:1;fill-rule:nonzero;stroke:none" /></g><g
           transform="translate(930.2009,44.7858)"
           id="g358"><path
             d="m 0,0 c 0,1.965 -0.437,2.48 -1.308,2.48 -0.667,0 -1.152,-0.417 -1.576,-0.81 l 0,-3.303 c 0.424,-0.43 0.922,-0.725 1.503,-0.725 C -0.473,-2.358 0,-1.818 0,0 m -3.611,2.996 0.509,0 0.17,-0.786 c 0.436,0.491 1.042,0.909 1.733,0.909 1.151,0 1.962,-0.823 1.962,-3.058 0,-2.112 -0.702,-3.058 -2.011,-3.058 -0.727,0 -1.26,0.381 -1.636,0.774 l 0,-3.156 -0.727,0 0,8.375 z"
             id="path360"
             style="fill:#000000;fill-opacity:1;fill-rule:nonzero;stroke:none" /></g><g
           transform="translate(936.2233,44.7858)"
           id="g362"><path
             d="m 0,0 c 0,1.965 -0.437,2.48 -1.308,2.48 -0.667,0 -1.152,-0.417 -1.576,-0.81 l 0,-3.303 c 0.424,-0.43 0.922,-0.725 1.503,-0.725 C -0.473,-2.358 0,-1.818 0,0 m -3.611,2.996 0.509,0 0.17,-0.786 c 0.436,0.491 1.041,0.909 1.732,0.909 1.152,0 1.963,-0.823 1.963,-3.058 0,-2.112 -0.702,-3.058 -2.011,-3.058 -0.727,0 -1.26,0.381 -1.636,0.774 l 0,-3.156 -0.727,0 0,8.375 z"
             id="path364"
             style="fill:#000000;fill-opacity:1;fill-rule:nonzero;stroke:none" /></g><g
           transform="translate(938.6469,42.968)"
           id="g366"><path
             d="m 0,0 0,7.724 0.727,0 0,-7.797 c 0,-0.369 0.146,-0.479 0.412,-0.479 0.158,0 0.254,0.036 0.254,0.036 L 1.514,-1.043 C 1.357,-1.105 1.151,-1.154 0.945,-1.154 0.375,-1.154 0,-0.859 0,0"
             id="path368"
             style="fill:#000000;fill-opacity:1;fill-rule:nonzero;stroke:none" /></g><g
           transform="translate(941.5546,49.6977)"
           id="g370"><path
             d="M 0,0 C 0,0.332 0.23,0.577 0.545,0.577 0.872,0.577 1.103,0.332 1.103,0 1.103,-0.319 0.872,-0.565 0.545,-0.565 0.23,-0.565 0,-0.319 0,0 m 0.254,-2.493 -0.824,0.11 0,0.468 1.551,0 0,-5.871 -0.727,0 0,5.293 z"
             id="path372"
             style="fill:#000000;fill-opacity:1;fill-rule:nonzero;stroke:none" /></g><g
           transform="translate(947.7214,45.3133)"
           id="g374"><path
             d="M 0,0 C 0,1.499 -0.435,1.99 -1.332,1.99 -2.144,1.99 -2.677,1.536 -2.762,0 L 0,0 z m -1.187,-2.898 c 0.667,0 1.066,0.234 1.442,0.528 l 0.4,-0.515 c -0.497,-0.406 -1.042,-0.639 -1.842,-0.639 -1.381,0 -2.351,0.785 -2.351,3.045 0,2.236 0.934,3.071 2.218,3.071 1.345,0 2.072,-0.86 2.072,-2.862 l 0,-0.307 -3.527,0 c 0.025,-1.781 0.498,-2.321 1.588,-2.321"
             id="path376"
             style="fill:#000000;fill-opacity:1;fill-rule:nonzero;stroke:none" /></g><g
           transform="translate(953.3918,43.2138)"
           id="g378"><path
             d="m 0,0 0,3.291 c -0.424,0.442 -0.92,0.762 -1.514,0.762 -0.909,0 -1.381,-0.541 -1.381,-2.358 0,-1.965 0.448,-2.481 1.32,-2.481 0.655,0 1.14,0.381 1.575,0.786 m -3.647,1.633 c 0,2.112 0.691,3.058 2,3.058 0.727,0 1.272,-0.418 1.647,-0.811 l 0,3.599 0.715,0 0,-8.781 -0.508,0 -0.17,0.75 c -0.436,-0.48 -1.03,-0.873 -1.721,-0.873 -1.163,0 -1.963,0.811 -1.963,3.058"
             id="path380"
             style="fill:#000000;fill-opacity:1;fill-rule:nonzero;stroke:none" /></g><g
           transform="translate(958.0698,42.7717)"
           id="g382"><path
             d="m 0,0 0.388,0.552 c 0.569,-0.54 1.175,-0.872 2.048,-0.872 1.223,0 1.72,0.603 1.72,1.61 0,1.141 -0.594,1.473 -1.708,1.939 C 1.212,3.746 0.46,4.236 0.46,5.624 c 0,1.339 0.885,2.063 2.194,2.063 0.896,0 1.441,-0.209 1.939,-0.565 L 4.265,6.521 C 3.804,6.853 3.332,7.036 2.69,7.036 1.842,7.036 1.212,6.607 1.212,5.649 1.212,4.654 1.673,4.384 2.726,3.942 4.071,3.377 4.944,2.873 4.944,1.314 4.944,0.073 4.277,-0.983 2.484,-0.983 1.442,-0.983 0.57,-0.565 0,0"
             id="path384"
             style="fill:#000000;fill-opacity:1;fill-rule:nonzero;stroke:none" /></g><g
           transform="translate(964.3583,44.8347)"
           id="g386"><path
             d="M 0,0 C 0,2.222 0.945,3.07 2.266,3.07 2.981,3.07 3.453,2.825 3.89,2.383 L 3.453,1.879 C 3.114,2.247 2.811,2.444 2.241,2.444 1.284,2.444 0.763,1.903 0.763,0.025 c 0,-1.879 0.509,-2.444 1.539,-2.444 0.617,0 0.945,0.295 1.223,0.59 L 3.998,-2.284 C 3.611,-2.727 3.077,-3.046 2.266,-3.046 0.933,-3.046 0,-2.198 0,0"
             id="path388"
             style="fill:#000000;fill-opacity:1;fill-rule:nonzero;stroke:none" /></g><g
           transform="translate(969.8466,49.6977)"
           id="g390"><path
             d="M 0,0 C 0,0.332 0.23,0.577 0.545,0.577 0.872,0.577 1.103,0.332 1.103,0 1.103,-0.319 0.872,-0.565 0.545,-0.565 0.23,-0.565 0,-0.319 0,0 m 0.254,-2.493 -0.824,0.11 0,0.468 1.551,0 0,-5.871 -0.727,0 0,5.293 z"
             id="path392"
             style="fill:#000000;fill-opacity:1;fill-rule:nonzero;stroke:none" /></g><g
           transform="translate(976.0134,45.3133)"
           id="g394"><path
             d="M 0,0 C 0,1.499 -0.436,1.99 -1.332,1.99 -2.144,1.99 -2.677,1.536 -2.762,0 L 0,0 z m -1.187,-2.898 c 0.667,0 1.066,0.234 1.442,0.528 l 0.4,-0.515 c -0.497,-0.406 -1.042,-0.639 -1.842,-0.639 -1.381,0 -2.351,0.785 -2.351,3.045 0,2.236 0.934,3.071 2.218,3.071 1.345,0 2.072,-0.86 2.072,-2.862 l 0,-0.307 -3.527,0 c 0.025,-1.781 0.498,-2.321 1.588,-2.321"
             id="path396"
             style="fill:#000000;fill-opacity:1;fill-rule:nonzero;stroke:none" /></g><g
           transform="translate(978.3644,47.7821)"
           id="g398"><path
             d="m 0,0 0.508,0 0.17,-0.847 c 0.57,0.564 1.176,0.969 1.891,0.969 0.824,0 1.429,-0.491 1.429,-1.51 l 0,-4.482 -0.727,0 0,4.286 c 0,0.786 -0.279,1.056 -0.872,1.056 -0.582,0 -1.151,-0.381 -1.672,-0.848 l 0,-4.494 L 0,-5.87 0,0 z"
             id="path400"
             style="fill:#000000;fill-opacity:1;fill-rule:nonzero;stroke:none" /></g><g
           transform="translate(983.9141,44.8347)"
           id="g402"><path
             d="M 0,0 C 0,2.222 0.945,3.07 2.265,3.07 2.981,3.07 3.453,2.825 3.89,2.383 L 3.453,1.879 C 3.114,2.247 2.811,2.444 2.241,2.444 1.284,2.444 0.763,1.903 0.763,0.025 c 0,-1.879 0.509,-2.444 1.539,-2.444 0.617,0 0.945,0.295 1.223,0.59 L 3.998,-2.284 C 3.611,-2.727 3.078,-3.046 2.265,-3.046 0.933,-3.046 0,-2.198 0,0"
             id="path404"
             style="fill:#000000;fill-opacity:1;fill-rule:nonzero;stroke:none" /></g><g
           transform="translate(992.4074,45.3133)"
           id="g406"><path
             d="M 0,0 C 0,1.499 -0.435,1.99 -1.332,1.99 -2.144,1.99 -2.677,1.536 -2.762,0 L 0,0 z m -1.187,-2.898 c 0.667,0 1.066,0.234 1.442,0.528 l 0.4,-0.515 c -0.497,-0.406 -1.042,-0.639 -1.842,-0.639 -1.381,0 -2.351,0.785 -2.351,3.045 0,2.236 0.934,3.071 2.218,3.071 1.344,0 2.072,-0.86 2.072,-2.862 l 0,-0.307 -3.527,0 c 0.025,-1.781 0.498,-2.321 1.588,-2.321"
             id="path408"
             style="fill:#000000;fill-opacity:1;fill-rule:nonzero;stroke:none" /></g><g
           transform="translate(994.1524,42.428)"
           id="g410"><path
             d="m 0,0 0.315,0.528 c 0.448,-0.332 0.933,-0.553 1.563,-0.553 0.861,0 1.212,0.393 1.212,1.032 0,0.712 -0.315,0.921 -1.308,1.24 -0.861,0.27 -1.503,0.675 -1.503,1.731 0,0.823 0.557,1.499 1.708,1.499 0.703,0 1.175,-0.172 1.575,-0.406 L 3.295,4.494 C 2.872,4.728 2.532,4.85 2,4.85 1.346,4.85 0.97,4.58 0.97,3.991 0.97,3.352 1.26,3.18 2.072,2.91 3.042,2.591 3.793,2.259 3.793,1.044 3.793,-0.098 3.078,-0.639 1.866,-0.639 1.09,-0.639 0.424,-0.344 0,0"
             id="path412"
             style="fill:#000000;fill-opacity:1;fill-rule:nonzero;stroke:none" /></g></g></g></g></svg>